<mxfile host="app.diagrams.net" modified="2023-11-02T07:41:12.344Z" agent="Mozilla/5.0 (Windows NT 10.0; Win64; x64) AppleWebKit/537.36 (KHTML, like Gecko) Chrome/119.0.0.0 Safari/537.36" etag="0y98dfQi6c8XmWK6X7Cx" version="22.0.8" type="github">
  <diagram id="C5RBs43oDa-KdzZeNtuy" name="Page-1">
    <mxGraphModel dx="2941" dy="3112" grid="1" gridSize="10" guides="1" tooltips="1" connect="1" arrows="1" fold="1" page="1" pageScale="1" pageWidth="827" pageHeight="1169" math="0" shadow="0">
      <root>
        <mxCell id="WIyWlLk6GJQsqaUBKTNV-0" />
        <mxCell id="WIyWlLk6GJQsqaUBKTNV-1" parent="WIyWlLk6GJQsqaUBKTNV-0" />
        <mxCell id="4PPbr4LL-ngfip25UFEL-0" value="" style="whiteSpace=wrap;html=1;aspect=fixed;fillColor=#ffe6cc;strokeColor=#d79b00;" vertex="1" parent="WIyWlLk6GJQsqaUBKTNV-1">
          <mxGeometry x="110" y="470" width="680" height="680" as="geometry" />
        </mxCell>
        <mxCell id="4PPbr4LL-ngfip25UFEL-4" value="" style="rounded=0;whiteSpace=wrap;html=1;fillColor=#fff2cc;strokeColor=#d6b656;" vertex="1" parent="WIyWlLk6GJQsqaUBKTNV-1">
          <mxGeometry x="480" y="555" width="110" height="40" as="geometry" />
        </mxCell>
        <mxCell id="4PPbr4LL-ngfip25UFEL-5" value="" style="rounded=0;whiteSpace=wrap;html=1;" vertex="1" parent="WIyWlLk6GJQsqaUBKTNV-1">
          <mxGeometry x="620" y="555" width="110" height="40" as="geometry" />
        </mxCell>
        <mxCell id="4PPbr4LL-ngfip25UFEL-6" value="" style="rounded=0;whiteSpace=wrap;html=1;fillColor=#dae8fc;strokeColor=#6c8ebf;" vertex="1" parent="WIyWlLk6GJQsqaUBKTNV-1">
          <mxGeometry x="480" y="620" width="110" height="40" as="geometry" />
        </mxCell>
        <mxCell id="4PPbr4LL-ngfip25UFEL-7" value="" style="rounded=0;whiteSpace=wrap;html=1;fillColor=#e1d5e7;strokeColor=#9673a6;" vertex="1" parent="WIyWlLk6GJQsqaUBKTNV-1">
          <mxGeometry x="340" y="620" width="110" height="40" as="geometry" />
        </mxCell>
        <mxCell id="4PPbr4LL-ngfip25UFEL-8" value="" style="rounded=0;whiteSpace=wrap;html=1;fillColor=#60a917;fontColor=#ffffff;strokeColor=#2D7600;" vertex="1" parent="WIyWlLk6GJQsqaUBKTNV-1">
          <mxGeometry x="190" y="620" width="110" height="40" as="geometry" />
        </mxCell>
        <mxCell id="4PPbr4LL-ngfip25UFEL-9" value="" style="rounded=0;whiteSpace=wrap;html=1;fillColor=#f5f5f5;fontColor=#333333;strokeColor=#666666;" vertex="1" parent="WIyWlLk6GJQsqaUBKTNV-1">
          <mxGeometry x="620" y="620" width="110" height="40" as="geometry" />
        </mxCell>
        <mxCell id="4PPbr4LL-ngfip25UFEL-10" value="" style="rounded=0;whiteSpace=wrap;html=1;fillColor=#f8cecc;strokeColor=#b85450;" vertex="1" parent="WIyWlLk6GJQsqaUBKTNV-1">
          <mxGeometry x="340" y="555" width="110" height="40" as="geometry" />
        </mxCell>
        <mxCell id="4PPbr4LL-ngfip25UFEL-11" value="" style="rounded=0;whiteSpace=wrap;html=1;fillColor=#d5e8d4;strokeColor=#82b366;" vertex="1" parent="WIyWlLk6GJQsqaUBKTNV-1">
          <mxGeometry x="190" y="555" width="110" height="40" as="geometry" />
        </mxCell>
        <mxCell id="4PPbr4LL-ngfip25UFEL-16" style="edgeStyle=orthogonalEdgeStyle;rounded=0;orthogonalLoop=1;jettySize=auto;html=1;entryX=0.5;entryY=1;entryDx=0;entryDy=0;" edge="1" parent="WIyWlLk6GJQsqaUBKTNV-1" source="4PPbr4LL-ngfip25UFEL-12" target="4PPbr4LL-ngfip25UFEL-7">
          <mxGeometry relative="1" as="geometry" />
        </mxCell>
        <mxCell id="4PPbr4LL-ngfip25UFEL-17" style="edgeStyle=orthogonalEdgeStyle;rounded=0;orthogonalLoop=1;jettySize=auto;html=1;entryX=0.5;entryY=1;entryDx=0;entryDy=0;" edge="1" parent="WIyWlLk6GJQsqaUBKTNV-1" source="4PPbr4LL-ngfip25UFEL-12" target="4PPbr4LL-ngfip25UFEL-6">
          <mxGeometry relative="1" as="geometry" />
        </mxCell>
        <mxCell id="4PPbr4LL-ngfip25UFEL-18" style="edgeStyle=orthogonalEdgeStyle;rounded=0;orthogonalLoop=1;jettySize=auto;html=1;entryX=0.445;entryY=1.063;entryDx=0;entryDy=0;entryPerimeter=0;" edge="1" parent="WIyWlLk6GJQsqaUBKTNV-1" source="4PPbr4LL-ngfip25UFEL-12" target="4PPbr4LL-ngfip25UFEL-8">
          <mxGeometry relative="1" as="geometry" />
        </mxCell>
        <mxCell id="4PPbr4LL-ngfip25UFEL-19" style="edgeStyle=orthogonalEdgeStyle;rounded=0;orthogonalLoop=1;jettySize=auto;html=1;" edge="1" parent="WIyWlLk6GJQsqaUBKTNV-1" source="4PPbr4LL-ngfip25UFEL-12" target="4PPbr4LL-ngfip25UFEL-9">
          <mxGeometry relative="1" as="geometry" />
        </mxCell>
        <mxCell id="4PPbr4LL-ngfip25UFEL-12" value="Actor" style="shape=umlActor;verticalLabelPosition=bottom;verticalAlign=top;html=1;outlineConnect=0;fillColor=#d5e8d4;strokeColor=#82b366;gradientColor=#97d077;" vertex="1" parent="WIyWlLk6GJQsqaUBKTNV-1">
          <mxGeometry x="420" y="950" width="80" height="120" as="geometry" />
        </mxCell>
        <mxCell id="4PPbr4LL-ngfip25UFEL-15" style="edgeStyle=orthogonalEdgeStyle;rounded=0;orthogonalLoop=1;jettySize=auto;html=1;" edge="1" parent="WIyWlLk6GJQsqaUBKTNV-1" source="4PPbr4LL-ngfip25UFEL-0" target="4PPbr4LL-ngfip25UFEL-0">
          <mxGeometry relative="1" as="geometry" />
        </mxCell>
        <object label="" id="4PPbr4LL-ngfip25UFEL-22">
          <mxCell style="whiteSpace=wrap;html=1;aspect=fixed;movable=1;resizable=1;rotatable=1;deletable=1;editable=1;locked=0;connectable=1;align=right;" vertex="1" parent="WIyWlLk6GJQsqaUBKTNV-1">
            <mxGeometry x="-945" y="-640" width="780" height="780" as="geometry" />
          </mxCell>
        </object>
        <mxCell id="4PPbr4LL-ngfip25UFEL-30" value="" style="whiteSpace=wrap;html=1;aspect=fixed;" vertex="1" parent="WIyWlLk6GJQsqaUBKTNV-1">
          <mxGeometry x="50" y="-1210" width="1160" height="1160" as="geometry" />
        </mxCell>
        <mxCell id="4PPbr4LL-ngfip25UFEL-31" value="序号" style="rounded=0;whiteSpace=wrap;html=1;fillColor=#bac8d3;strokeColor=#23445d;" vertex="1" parent="WIyWlLk6GJQsqaUBKTNV-1">
          <mxGeometry x="90" y="-1125" width="100" height="40" as="geometry" />
        </mxCell>
        <mxCell id="4PPbr4LL-ngfip25UFEL-32" value="配置项名称" style="rounded=0;whiteSpace=wrap;html=1;fillColor=#bac8d3;strokeColor=#23445d;" vertex="1" parent="WIyWlLk6GJQsqaUBKTNV-1">
          <mxGeometry x="220" y="-1125" width="100" height="40" as="geometry" />
        </mxCell>
        <mxCell id="4PPbr4LL-ngfip25UFEL-33" value="端口号" style="rounded=0;whiteSpace=wrap;html=1;fillColor=#bac8d3;strokeColor=#23445d;" vertex="1" parent="WIyWlLk6GJQsqaUBKTNV-1">
          <mxGeometry x="370" y="-1125" width="100" height="40" as="geometry" />
        </mxCell>
        <mxCell id="4PPbr4LL-ngfip25UFEL-35" value="日志级别" style="rounded=0;whiteSpace=wrap;html=1;fillColor=#bac8d3;strokeColor=#23445d;" vertex="1" parent="WIyWlLk6GJQsqaUBKTNV-1">
          <mxGeometry x="660" y="-1125" width="100" height="40" as="geometry" />
        </mxCell>
        <mxCell id="4PPbr4LL-ngfip25UFEL-36" value="文件路径" style="rounded=0;whiteSpace=wrap;html=1;fillColor=#bac8d3;strokeColor=#23445d;" vertex="1" parent="WIyWlLk6GJQsqaUBKTNV-1">
          <mxGeometry x="530" y="-1125" width="100" height="40" as="geometry" />
        </mxCell>
        <mxCell id="4PPbr4LL-ngfip25UFEL-37" value="创建人" style="rounded=0;whiteSpace=wrap;html=1;fillColor=#bac8d3;strokeColor=#23445d;" vertex="1" parent="WIyWlLk6GJQsqaUBKTNV-1">
          <mxGeometry x="810" y="-1125" width="100" height="40" as="geometry" />
        </mxCell>
        <mxCell id="4PPbr4LL-ngfip25UFEL-40" value="创建时间" style="rounded=0;whiteSpace=wrap;html=1;fillColor=#bac8d3;strokeColor=#23445d;" vertex="1" parent="WIyWlLk6GJQsqaUBKTNV-1">
          <mxGeometry x="950" y="-1125" width="100" height="40" as="geometry" />
        </mxCell>
        <mxCell id="4PPbr4LL-ngfip25UFEL-41" value="操作" style="rounded=0;whiteSpace=wrap;html=1;fillColor=#dae8fc;strokeColor=#6c8ebf;" vertex="1" parent="WIyWlLk6GJQsqaUBKTNV-1">
          <mxGeometry x="1070" y="-1125" width="100" height="40" as="geometry" />
        </mxCell>
        <mxCell id="4PPbr4LL-ngfip25UFEL-44" value="新增" style="html=1;shadow=0;dashed=0;shape=mxgraph.bootstrap.rrect;rSize=5;strokeColor=none;strokeWidth=1;fillColor=#0085FC;fontColor=#FFFFFF;whiteSpace=wrap;align=center;verticalAlign=middle;spacingLeft=0;fontStyle=1;fontSize=14;spacing=5;" vertex="1" parent="WIyWlLk6GJQsqaUBKTNV-1">
          <mxGeometry x="90" y="-1190" width="90" height="40" as="geometry" />
        </mxCell>
        <mxCell id="4PPbr4LL-ngfip25UFEL-46" value="删除&amp;nbsp;" style="html=1;shadow=0;dashed=0;shape=mxgraph.bootstrap.rrect;rSize=5;strokeColor=none;strokeWidth=1;fillColor=#0085FC;fontColor=#FFFFFF;whiteSpace=wrap;align=center;verticalAlign=middle;spacingLeft=0;fontStyle=1;fontSize=14;spacing=5;" vertex="1" parent="WIyWlLk6GJQsqaUBKTNV-1">
          <mxGeometry x="1070" y="-1050" width="50" height="20" as="geometry" />
        </mxCell>
        <mxCell id="4PPbr4LL-ngfip25UFEL-47" value="修改" style="html=1;shadow=0;dashed=0;shape=mxgraph.bootstrap.rrect;rSize=5;strokeColor=none;strokeWidth=1;fillColor=#0085FC;fontColor=#FFFFFF;whiteSpace=wrap;align=center;verticalAlign=middle;spacingLeft=0;fontStyle=1;fontSize=14;spacing=5;" vertex="1" parent="WIyWlLk6GJQsqaUBKTNV-1">
          <mxGeometry x="1130" y="-1050" width="45" height="20" as="geometry" />
        </mxCell>
        <mxCell id="4PPbr4LL-ngfip25UFEL-60" value="配置项名称" style="fillColor=none;strokeColor=none;align=left;fontSize=14;fontColor=#212529;" vertex="1" parent="WIyWlLk6GJQsqaUBKTNV-1">
          <mxGeometry x="-940" y="-520" width="260" height="40" as="geometry" />
        </mxCell>
        <mxCell id="4PPbr4LL-ngfip25UFEL-61" value="Example input placeholder" style="html=1;shadow=0;dashed=0;shape=mxgraph.bootstrap.rrect;rSize=5;fillColor=none;strokeColor=#999999;align=left;spacing=15;fontSize=14;fontColor=#6C767D;" vertex="1" parent="WIyWlLk6GJQsqaUBKTNV-1">
          <mxGeometry width="770" height="30" relative="1" as="geometry">
            <mxPoint x="-940" y="-480" as="offset" />
          </mxGeometry>
        </mxCell>
        <mxCell id="4PPbr4LL-ngfip25UFEL-62" value="日志级别" style="fillColor=none;strokeColor=none;align=left;fontSize=14;fontColor=#212529;" vertex="1" parent="WIyWlLk6GJQsqaUBKTNV-1">
          <mxGeometry width="260" height="40" relative="1" as="geometry">
            <mxPoint x="-940" y="-440" as="offset" />
          </mxGeometry>
        </mxCell>
        <mxCell id="4PPbr4LL-ngfip25UFEL-64" value="文件路径" style="fillColor=none;strokeColor=none;align=left;fontSize=14;fontColor=#212529;" vertex="1" parent="WIyWlLk6GJQsqaUBKTNV-1">
          <mxGeometry x="-940" y="-360" width="260" height="40" as="geometry" />
        </mxCell>
        <mxCell id="4PPbr4LL-ngfip25UFEL-65" value="Example input placeholder" style="html=1;shadow=0;dashed=0;shape=mxgraph.bootstrap.rrect;rSize=5;fillColor=none;strokeColor=#999999;align=left;spacing=15;fontSize=14;fontColor=#6C767D;" vertex="1" parent="WIyWlLk6GJQsqaUBKTNV-1">
          <mxGeometry x="-940" y="-320" width="770" height="30" as="geometry" />
        </mxCell>
        <mxCell id="4PPbr4LL-ngfip25UFEL-66" value="端口号" style="fillColor=none;strokeColor=none;align=left;fontSize=14;fontColor=#212529;" vertex="1" parent="WIyWlLk6GJQsqaUBKTNV-1">
          <mxGeometry x="-940" y="-280" width="260" height="40" as="geometry" />
        </mxCell>
        <mxCell id="4PPbr4LL-ngfip25UFEL-67" value="Another input placeholder" style="html=1;shadow=0;dashed=0;shape=mxgraph.bootstrap.rrect;rSize=5;fillColor=none;strokeColor=#999999;align=left;spacing=15;fontSize=14;fontColor=#6C767D;" vertex="1" parent="WIyWlLk6GJQsqaUBKTNV-1">
          <mxGeometry x="-940" y="-240" width="770" height="30" as="geometry" />
        </mxCell>
        <mxCell id="4PPbr4LL-ngfip25UFEL-68" value="Another input placeholder" style="html=1;shadow=0;dashed=0;shape=mxgraph.bootstrap.rrect;rSize=5;fillColor=none;strokeColor=#999999;align=left;spacing=15;fontSize=14;fontColor=#6C767D;" vertex="1" parent="WIyWlLk6GJQsqaUBKTNV-1">
          <mxGeometry x="-940" y="-160" width="770" height="30" as="geometry" />
        </mxCell>
        <mxCell id="4PPbr4LL-ngfip25UFEL-69" value="配置项描述" style="fillColor=none;strokeColor=none;align=left;fontSize=14;fontColor=#212529;" vertex="1" parent="WIyWlLk6GJQsqaUBKTNV-1">
          <mxGeometry x="-940" y="-210" width="260" height="40" as="geometry" />
        </mxCell>
        <mxCell id="4PPbr4LL-ngfip25UFEL-83" value="1" style="html=1;shadow=0;dashed=0;shape=mxgraph.bootstrap.radioButton2;labelPosition=right;verticalLabelPosition=middle;align=left;verticalAlign=middle;gradientColor=#DEDEDE;fillColor=#EDEDED;checked=0;spacing=5;checkedFill=#0085FC;checkedStroke=#ffffff;" vertex="1" parent="WIyWlLk6GJQsqaUBKTNV-1">
          <mxGeometry x="-940" y="-390" width="20" height="20" as="geometry" />
        </mxCell>
        <mxCell id="4PPbr4LL-ngfip25UFEL-84" value="2" style="html=1;shadow=0;dashed=0;shape=mxgraph.bootstrap.radioButton2;labelPosition=right;verticalLabelPosition=middle;align=left;verticalAlign=middle;gradientColor=#DEDEDE;fillColor=#EDEDED;checked=0;spacing=5;checkedFill=#0085FC;checkedStroke=#ffffff;" vertex="1" parent="WIyWlLk6GJQsqaUBKTNV-1">
          <mxGeometry x="-887" y="-390" width="20" height="20" as="geometry" />
        </mxCell>
        <mxCell id="4PPbr4LL-ngfip25UFEL-86" value="2" style="html=1;shadow=0;dashed=0;shape=mxgraph.bootstrap.radioButton2;labelPosition=right;verticalLabelPosition=middle;align=left;verticalAlign=middle;gradientColor=#DEDEDE;fillColor=#EDEDED;checked=0;spacing=5;checkedFill=#0085FC;checkedStroke=#ffffff;" vertex="1" parent="WIyWlLk6GJQsqaUBKTNV-1">
          <mxGeometry x="-827" y="-390" width="20" height="20" as="geometry" />
        </mxCell>
        <mxCell id="4PPbr4LL-ngfip25UFEL-88" value="&lt;div style=&quot;&quot;&gt;&lt;span style=&quot;background-color: initial;&quot;&gt;保存&lt;/span&gt;&lt;/div&gt;" style="html=1;shadow=0;dashed=0;shape=mxgraph.bootstrap.rrect;rSize=5;strokeColor=none;strokeWidth=1;fillColor=#0085FC;fontColor=#FFFFFF;whiteSpace=wrap;align=center;verticalAlign=middle;spacingLeft=0;fontStyle=1;fontSize=14;spacing=5;" vertex="1" parent="WIyWlLk6GJQsqaUBKTNV-1">
          <mxGeometry x="-585" width="85" height="30" as="geometry" />
        </mxCell>
        <mxCell id="4PPbr4LL-ngfip25UFEL-90" value="新增/修改运行配置" style="html=1;shadow=0;dashed=0;shape=mxgraph.bootstrap.rrect;rSize=5;strokeColor=none;strokeWidth=1;fillColor=#1CA5B8;fontColor=#FFFFFF;whiteSpace=wrap;align=center;verticalAlign=middle;spacingLeft=0;fontStyle=0;fontSize=16;spacing=5;" vertex="1" parent="WIyWlLk6GJQsqaUBKTNV-1">
          <mxGeometry x="-945" y="-640" width="195" height="60" as="geometry" />
        </mxCell>
      </root>
    </mxGraphModel>
  </diagram>
</mxfile>
